<svg width="245" height="35" viewBox="0 0 245 35" fill="none" xmlns="http://www.w3.org/2000/svg">
<g id="RV-horizontal-black" clip-path="url(#clip0_24_56)">
<g id="Layer_1-2">
<path id="Vector" d="M31.7192 22.6088V25.6275H19.1248V9.37258H31.4171V12.3912H22.866V15.921H30.4178V18.8467H22.866V22.6088L31.7192 22.6088Z" fill="#131314"/>
<path id="Vector_2" d="M33.6489 17.4998C33.6489 12.6001 37.4132 9.09362 42.4788 9.09362C45.2904 9.09362 47.6371 10.1156 49.171 11.9734L46.7542 14.2026C45.6622 12.9487 44.291 12.2982 42.6645 12.2982C39.6205 12.2982 37.4595 14.4349 37.4595 17.4998C37.4595 20.5647 39.6206 22.7014 42.6645 22.7014C44.291 22.7014 45.6622 22.0513 46.7542 20.774L49.171 23.0033C47.6371 24.8843 45.2904 25.906 42.4555 25.906C37.4132 25.906 33.6489 22.3995 33.6489 17.4998Z" fill="#131314"/>
<path id="Vector_3" d="M54.9118 12.4379H49.7068V9.37258H63.8811V12.4379H58.676V25.6274H54.9118V12.4379Z" fill="#131314"/>
<path id="Vector_4" d="M64.6494 17.4998C64.6494 12.6698 68.4136 9.09362 73.549 9.09362C78.661 9.09362 82.4485 12.6468 82.4485 17.4998C82.4485 22.3528 78.661 25.906 73.549 25.906C68.4136 25.906 64.6494 22.3299 64.6494 17.4998ZM78.6376 17.4998C78.6376 14.4115 76.4536 12.2982 73.549 12.2982C70.6444 12.2982 68.4599 14.4116 68.4599 17.4998C68.4599 20.5881 70.6443 22.7014 73.549 22.7014C76.4536 22.7014 78.6376 20.5885 78.6376 17.4998Z" fill="#131314"/>
<path id="Vector_5" d="M95.6483 25.6274L92.5116 21.0993H89.0491V25.6274H85.2849V9.37258H92.3255C96.671 9.37258 99.3895 11.6248 99.3895 15.2706C99.3895 17.7091 98.1581 19.4968 96.0434 20.4025L99.6916 25.6274H95.6483ZM92.1165 12.4379H89.0492V18.1036H92.1165C94.4169 18.1036 95.5786 17.0356 95.5786 15.2705C95.5786 13.4825 94.4169 12.4379 92.1165 12.4379Z" fill="#131314"/>
<path id="Vector_6" d="M145.61 25.6274L142.473 21.0993H139.011V25.6274H135.246V9.37258H142.287C146.632 9.37258 149.351 11.6248 149.351 15.2706C149.351 17.7091 148.12 19.4968 146.005 20.4025L149.653 25.6274H145.61ZM142.078 12.4379H139.011V18.1036H142.078C144.379 18.1036 145.54 17.0356 145.54 15.2705C145.54 13.4825 144.379 12.4379 142.078 12.4379Z" fill="#131314"/>
<path id="Vector_7" d="M164.921 22.6088V25.6275H152.326V9.37258H164.619V12.3912H156.068V15.921H163.619V18.8467H156.068V22.6088L164.921 22.6088Z" fill="#131314"/>
<path id="Vector_8" d="M166.641 24.0253L167.919 21.1922C169.29 22.1906 171.335 22.8873 173.287 22.8873C175.518 22.8873 176.424 22.1443 176.424 21.1456C176.424 18.1036 166.967 20.1936 166.967 14.1559C166.967 11.3929 169.197 9.09362 173.821 9.09362C175.866 9.09362 177.958 9.5815 179.468 10.5335L178.306 13.3899C176.796 12.5305 175.239 12.1127 173.798 12.1127C171.567 12.1127 170.708 12.9487 170.708 13.9704C170.708 16.9661 180.165 14.899 180.165 20.8671C180.165 23.5842 177.911 25.906 173.264 25.906C170.684 25.906 168.082 25.1399 166.641 24.0253Z" fill="#131314"/>
<path id="Vector_9" d="M195.34 22.6088V25.6275H182.745V9.37258H195.038V12.3912H186.486V15.921H194.038V18.8467H186.486V22.6088L195.34 22.6088Z" fill="#131314"/>
<path id="Vector_10" d="M208.702 25.6274L205.565 21.0993H202.103V25.6274H198.339V9.37258H205.379C209.725 9.37258 212.443 11.6248 212.443 15.2706C212.443 17.7091 211.212 19.4968 209.097 20.4025L212.745 25.6274H208.702ZM205.17 12.4379H202.103V18.1036H205.17C207.471 18.1036 208.633 17.0356 208.633 15.2705C208.633 13.4825 207.471 12.4379 205.17 12.4379Z" fill="#131314"/>
<path id="Vector_11" d="M245 22.6088V25.6275H232.406V9.37258H244.698V12.3912H236.147V15.921H243.699V18.8467H236.147V22.6088L245 22.6088Z" fill="#131314"/>
<path id="Vector_12" d="M129.503 17.4999L117.293 0L105.083 17.4999L117.293 35L129.503 17.4999ZM112.784 23.91L117.286 9.11749L121.776 23.9471L117.293 30.3724L112.784 23.91ZM126.274 17.4999L123.706 21.1813L119.768 8.17475L126.274 17.4999ZM108.312 17.4999L114.795 8.20816L110.857 21.1473L108.312 17.4999Z" fill="#131314"/>
<path id="Vector_13" d="M17.7762 9.37262H14.0349L9.0156 20.983L4.06634 9.37262H0L9.0156 29.9453L17.7762 9.37262Z" fill="#131314"/>
<path id="Vector_14" d="M231.057 9.37262H227.316L222.296 20.983L217.347 9.37262H213.281L222.296 29.9453L231.057 9.37262Z" fill="#131314"/>
</g>
</g>
<defs>
<clipPath id="clip0_24_56">
<rect width="245" height="35" fill="white"/>
</clipPath>
</defs>
</svg>
